# AST/ASF file generated using VICON BodyLanguage
# -----------------------------------------------
:version 1.10
:name VICON
:units
  mass 1.0
  length 0.45
  angle deg
:documentation
   .ast/.asf automatically generated from VICON data using
   VICON BodyBuilder and BodyLanguage model FoxedUp or BRILLIANT.MOD
:root
   order TX TY TZ RX RY RZ
   axis XYZ
   position 0 0 0  
   orientation 0 0 0 
:bonedata
  begin
     id 1 
     name lhipjoint
     direction 0.584852 -0.759097 0.285867 
     length 2.43633 
     axis 0 0 0  XYZ
  end
  begin
     id 2 
     name lfemur
     direction 0.34202 -0.939693 0  
     length 7.14704  
     axis 0 0 20  XYZ
    dof rx ry rz
    limits (-160.0 20.0)
           (-70.0 70.0)
           (-60.0 70.0)
  end
  begin
     id 3 
     name ltibia
     direction 0.342022 -0.939692 0   
     length 7.68483   
     axis 0 0 20   XYZ
    dof rx
    limits (-10.0 170.0)
  end
  begin
     id 4 
     name lfoot
     direction 0.0999605 -0.274639 0.956337   
     length 2.40452   
     axis -90 7.62852e-016 20   XYZ
    dof rx rz
    limits (-45.0 90.0)
           (-70.0 20.0)
  end
  begin
     id 5 
     name ltoes
     direction 1.53468e-011 -4.21881e-011 1   
     length 1.19837   
     axis -90 7.62852e-016 20   XYZ
    dof rx
    limits (-90.0 20.0)
  end
  begin
     id 6 
     name rhipjoint
     direction -0.569886 -0.769002 0.289597   
     length 2.40495  
     axis 0 0 0  XYZ 
  end
  begin
     id 7 
     name rfemur
     direction -0.34202 -0.939693 0   
     length 7.45086   
     axis 0 0 -20   XYZ
    dof rx ry rz
    limits (-160.0 20.0)
           (-70.0 70.0)
           (-70.0 60.0)
  end
  begin
     id 8 
     name rtibia
     direction -0.34202 -0.939693 0   
     length 7.76831   
     axis 0 0 -20   XYZ
    dof rx
    limits (-10.0 170.0)
 end
 begin
     id 9 
     name rfoot
     direction -0.0798572 -0.219406 0.97236   
     length 2.35911  
     axis -90 -7.62852e-016 -20   XYZ
    dof rx rz
    limits (-45.0 90.0)
           (-20.0 70.0)
  end
  begin
     id 10 
     name rtoes
     direction -1.53469e-011 -4.21728e-011 1   
     length 1.18261   
     axis -90 -7.62852e-016 -20   XYZ
    dof rx
    limits (-90.0 20.0)
  end
  begin
     id 11 
     name lowerback
     direction 0.0242088 0.999437 0.0232389   
     length 2.1561   
     axis 0 0 0   XYZ
    dof rx ry rz
    limits (-20.0 45.0)
           (-30.0 30.0)
           (-30.0 30.0)
  end
  begin
     id 12 
     name upperback
     direction -0.0356893 0.999013 -0.0264323   
     length 2.14431   
     axis 0 0 0   XYZ
    dof rx ry rz
    limits (-20.0 45.0)
           (-30.0 30.0)
           (-30.0 30.0)
  end
  begin
     id 13 
     name thorax
     direction -0.0472163 0.998194 -0.0371284   
     length 2.16169   
     axis 0 0 0   XYZ
    dof rx ry rz
    limits (-20.0 45.0)
           (-30.0 30.0)
           (-30.0 30.0)
  end
  begin
     id 14 
     name lowerneck
     direction 0.00863244 0.999921 0.00911972   
     length 1.58651   
     axis 0 0 0   XYZ
    dof rx ry rz
    limits (-20.0 45.0)
           (-30.0 30.0)
           (-30.0 30.0)
  end
  begin
     id 15 
     name upperneck
     direction 0.149523 0.979068 -0.138086   
     length 1.57486   
     axis 0 0 0   XYZ
    dof rx ry rz
    limits (-20.0 45.0)
           (-30.0 30.0)
           (-30.0 30.0)
  end
  begin
     id 16
     name head
     direction 0.0445219 0.997708 -0.0509576  
     length 1.6019  
     axis 0 0 0   XYZ
    dof rx ry rz
    limits (-20.0 45.0)
           (-30.0 30.0)
           (-30.0 30.0)
  end
  begin
     id 17 
     name lclavicle
     direction 0.911271 0.381667 -0.154644  
     length 3.80848  
     axis 0 0 0   XYZ
    dof ry rz
    limits (-20.0 10.0)
           (0.0 20.0)
  end
  begin
     id 18 
     name lhumerus
     direction 1 -4.49003e-011 2.1308e-027   
     length 5.19069   
     axis 180 -30 -90   XYZ
    dof rx ry rz
    limits (-60.0 90.0)
           (-90.0 90.0)
           (-90.0 90.0)
  end
  begin
     id 19
     name lradius
     direction 1 -4.48914e-011 4.01554e-027   
     length 3.30016   
     axis 180 -30 -90   XYZ
    dof rx
    limits (-10.0 170.0)
  end
  begin
     id 20
     name lwrist
     direction 1 -4.49003e-011 1.1934e-026   
     length 1.65008   
     axis -8.46377e-015 90 90   XYZ
    dof ry
    limits (-180.0 0.0)
 end
  begin
     id 21 
     name lhand
     direction 1 -4.49034e-011 2.38659e-026   
     length 0.707698   
     axis -1.52313e-014 90 90   XYZ
    dof rx rz
    limits (-90.0 90.0)
           (-45.0 45.0)
  end
  begin
     id 22 
     name lfingers
     direction 1 -4.48691e-011 4.77775e-026   
     length 0.570564   
     axis -3.04623e-014 90 90   XYZ
    dof rx
    limits (0.0 90.0)
  end
  begin
     id 23
     name lthumb
     direction 0.707107 -6.34832e-011 0.707107   
     length 0.819219   
     axis -90 45 -1.62303e-014   XYZ
    dof rx rz
    limits (-45.0 45.0)
           (-45.0 45.0)
  end
  begin
     id 24 
     name rclavicle
     direction -0.815579 0.573708 -0.0754329   
     length 3.54371  
     axis 0 0 0   XYZ 
    dof ry rz
    limits (-10.0 20.0)
           (-20.0 0.0)
  end
  begin
     id 25 
     name rhumerus
     direction -1 -4.48956e-011 3.05351e-028  
     length 5.23924   
     axis 180 30 90   XYZ
    dof rx ry rz
    limits (-90.0 60.0)
           (-90.0 90.0)
           (-90.0 90.0)
  end
  begin
     id 26 
     name rradius
     direction -1 -4.49013e-011 3.53849e-027   
     length 3.32953   
     axis 180 30 90   XYZ
    dof rx
    limits (-10.0 170.0)
  end
  begin
     id 27 
     name rwrist
     direction -1 -4.48901e-011 1.19374e-026   
     length 1.66477   
     axis -8.46377e-015 -90 -90   XYZ
    dof ry
    limits (-180.0 0.0)
  end
  begin
     id 28
     name rhand
     direction -1 -4.48877e-011 2.38764e-026   
     length 0.607414   
     axis -1.52313e-014 -90 -90   XYZ
    dof rx rz
    limits (-90.0 90.0)
           (-45.0 45.0)
  end
  begin
     id 29
     name rfingers
     direction -1 -4.48882e-011 4.77521e-026   
     length 0.489712   
     axis -3.04623e-014 -90 -90   XYZ
    dof rx
    limits (0.0 90.0)
  end
  begin
     id 30
     name rthumb
     direction -0.707107 -6.34974e-011 0.707107   
     length 0.703132   
     axis -90 -45 1.62303e-014   XYZ
    dof rx rz
    limits (-45.0 45.0)
           (-45.0 45.0)
  end
:hierarchy
  begin
    root lhipjoint rhipjoint lowerback
    lhipjoint lfemur
    lfemur ltibia
    ltibia lfoot
    lfoot ltoes
    rhipjoint rfemur
    rfemur rtibia
    rtibia rfoot
    rfoot rtoes
    lowerback upperback
    upperback thorax
    thorax lowerneck lclavicle rclavicle
    lowerneck upperneck
    upperneck head
    lclavicle lhumerus
    lhumerus lradius
    lradius lwrist
    lwrist lhand lthumb
    lhand lfingers
    rclavicle rhumerus
    rhumerus rradius
    rradius rwrist
    rwrist rhand rthumb
    rhand rfingers
  end

#!OML:ASF E:\VariousWalksJay\Project 1\Capture day 1\Session 1\Actor2.ASF
:FULLY-SPECIFIED
:DEGREES
1
root 26.3491 16.6358 48.1769 176.572 -52.129 -175.074
lowerback -2.50222 0.200213 5.87394
upperback 4.98679 -0.103491 -1.42598
thorax 6.62653 0.244184 -4.8121
lowerneck -8.81134 2.50565 4.2602
upperneck 7.12968 2.00524 6.67869
head 3.90457 1.34132 1.59992
rclavicle 8.84592e-015 3.37934e-014
rhumerus -32.1074 1.17267 -85.5156
rradius 35.9652
rwrist -0.318692
rhand -10.6376 -4.96867
rfingers 7.12502
rthumb 15.3696 -34.3774
lclavicle 8.84592e-015 3.37934e-014
lhumerus -25.669 -9.66733 81.5929
lradius 29.5651
lwrist 7.56445
lhand -5.51884 -7.93452
lfingers 7.12502
lthumb 20.2948 21.0251
rfemur -12.4861 -3.89085 22.9466
rtibia 33.3465
rfoot -16.8347 -17.7121
rtoes -19.824
lfemur -10.2993 5.48861 -16.5133
ltibia 27.4378
lfoot -15.7288 5.01542
ltoes -19.8924
2
root 26.3485 16.6366 48.1743 176.518 -52.1601 -175.048
lowerback -2.41179 0.174542 5.9174
upperback 4.92213 -0.12666 -1.50754
thorax 6.5027 0.232457 -4.92365
lowerneck -9.401 2.14122 4.96522
upperneck 7.89784 1.45013 5.61558
head 4.31865 1.08272 1.10621
rclavicle -4.65156e-014 -1.59028e-014
rhumerus -32.2252 1.14615 -85.6497
rradius 36.0215
rwrist -0.285327
rhand -10.5276 -5.10022
rfingers 7.12502
rthumb 15.4755 -34.5008
lclavicle -4.65156e-014 -1.59028e-014
lhumerus -25.7574 -9.71824 81.435
lradius 29.3915
lwrist 7.46678
lhand -5.50606 -8.08388
lfingers 7.12502
lthumb 20.3071 20.8745
rfemur -12.4552 -3.84114 22.9752
rtibia 33.4106
rfoot -16.9891 -17.6505
rtoes -18.903
lfemur -10.2908 5.52796 -16.4757
ltibia 27.5223
lfoot -15.8361 4.89946
ltoes -19.7618
3
root 26.3481 16.6251 48.1772 176.499 -52.073 -175
lowerback -2.54861 0.223302 5.85759
upperback 4.98656 -0.0726615 -1.44918
thorax 6.65706 0.260485 -4.82529
lowerneck -9.46659 2.10148 4.92192
upperneck 7.87406 1.40915 5.5558
head 4.32314 1.05992 1.09141
rclavicle 1.97791e-014 -5.56597e-015
rhumerus -32.1006 1.18079 -85.5479
rradius 36.0565
rwrist -0.317343
rhand -7.98492 -6.44768
rfingers 7.12502
rthumb 17.9233 -35.6418
lclavicle 1.97791e-014 -5.56597e-015
lhumerus -25.5705 -9.68167 81.509
lradius 29.1832
lwrist 7.37938
lhand -5.52391 -7.69037
lfingers 7.12502
lthumb 20.29 21.2698
rfemur -12.56 -4.61301 22.9423
rtibia 33.4711
rfoot -16.8739 -16.7902
rtoes -18.569
lfemur -10.342 5.54214 -16.4459
ltibia 27.591
lfoot -15.9254 4.91409
ltoes -19.5814
4
root 26.3472 16.6254 48.1777 176.485 -52.0252 -174.974
lowerback -2.55071 0.216315 5.85284
upperback 4.96639 -0.0802141 -1.45352
thorax 6.63555 0.255811 -4.82761
lowerneck -9.42747 2.11943 4.92143
upperneck 7.88139 1.433 5.57385
head 4.31768 1.07181 1.09875
rclavicle -8.54774e-015 6.36111e-015
rhumerus -32.091 1.23773 -85.5569
rradius 36.0891
rwrist -0.34884
rhand -7.95776 -6.48906
rfingers 7.12502
rthumb 17.9495 -35.6808
lclavicle -8.54774e-015 6.36111e-015
lhumerus -25.5599 -9.58449 81.4559
lradius 28.9787
lwrist 7.25881
lhand -5.37161 -7.9959
lfingers 7.12502
lthumb 20.4363 20.9487
rfemur -12.5791 -4.58238 22.9635
rtibia 33.4926
rfoot -16.9825 -16.7392
rtoes -18.1892
lfemur -10.3445 5.57286 -16.411
ltibia 27.6215
lfoot -16.0157 4.87284
ltoes -19.2388
5
root 26.3521 16.6325 48.1813 176.535 -52.1656 -175.007
lowerback -2.49227 0.149453 5.79595
upperback 4.92137 -0.158598 -1.48418
thorax 6.54254 0.211481 -4.8332
lowerneck -9.39668 2.10946 4.91477
upperneck 7.90591 1.41535 5.61472
head 4.32026 1.06453 1.11262
rclavicle 6.75868e-015 -1.51076e-014
rhumerus -32.1208 1.21808 -85.5816
rradius 36.1431
rwrist -0.36974
rhand -7.37936 -6.87844
rfingers 7.12502
rthumb 18.5059 -36.0182
lclavicle 6.75868e-015 -1.51076e-014
lhumerus -25.5821 -9.59538 81.4016
lradius 28.8216
lwrist 7.22828
lhand -5.37757 -7.90287
lfingers 7.12502
lthumb 20.4306 21.0423
rfemur -12.5941 -4.22337 22.972
rtibia 33.5023
rfoot -17.1814 -17.1776
rtoes -17.7435
lfemur -10.4436 5.53676 -16.461
ltibia 27.635
lfoot -15.9165 4.80414
ltoes -19.7146
6
root 26.3524 16.6309 48.1808 176.495 -52.1297 -174.972
lowerback -2.47075 0.138755 5.79189
upperback 4.90537 -0.169901 -1.49619
thorax 6.51144 0.204798 -4.84415
lowerneck -9.38038 2.13323 4.92098
upperneck 7.9154 1.4434 5.63804
head 4.32027 1.07928 1.12126
rclavicle -2.93207e-014 3.85642e-014
rhumerus -32.1304 1.24048 -85.6097
rradius 36.1605
rwrist -0.34324
rhand -7.3345 -6.91433
rfingers 7.12502
rthumb 18.5491 -36.05
lclavicle -2.93207e-014 3.85642e-014
lhumerus -25.6051 -9.62985 81.3605
lradius 28.6707
lwrist 7.25148
lhand -5.45075 -7.81625
lfingers 7.12502
lthumb 20.3603 21.1364
rfemur -12.5659 -4.33715 22.9918
rtibia 33.4558
rfoot -17.0903 -17.0581
rtoes -17.8018
lfemur -10.3801 5.53621 -16.42
ltibia 27.5709
lfoot -15.9165 4.83102
ltoes -19.4671
7
root 26.3492 16.633 48.1843 176.56 -51.9546 -175.024
lowerback -2.39753 0.152126 5.84985
upperback 4.8329 -0.143768 -1.55163
thorax 6.39576 0.217598 -4.93225
lowerneck -9.3588 2.15726 4.8829
upperneck 7.96575 1.47198 5.69227
head 4.33345 1.09553 1.14905
rclavicle 1.16885e-013 -2.54444e-014
rhumerus -32.2071 1.31424 -85.6764
rradius 36.2126
rwrist -0.415538
rhand -7.58833 -6.80003
rfingers 7.12502
rthumb 18.3049 -35.9588
lclavicle 1.16885e-013 -2.54444e-014
lhumerus -25.7013 -9.55482 81.2751
lradius 28.5054
lwrist 7.20935
lhand -5.26365 -7.69479
lfingers 7.12502
lthumb 20.5401 21.2386
rfemur -12.5801 -4.14805 22.9571
rtibia 33.4014
rfoot -16.9231 -17.1763
rtoes -18.4514
lfemur -10.3337 5.59525 -16.4657
ltibia 27.4927
lfoot -15.886 4.94899
ltoes -19.5383
8
root 26.3496 16.6359 48.1831 176.526 -52.0079 -175.01
lowerback -2.37963 0.109339 5.81053
upperback 4.81941 -0.196471 -1.56286
thorax 6.36359 0.188624 -4.92561
lowerneck -9.27728 2.17666 4.92775
upperneck 7.93779 1.49815 5.69516
head 4.30709 1.10717 1.14188
rclavicle 4.99943e-014 -7.15625e-015
rhumerus -32.2306 1.30288 -85.6975
rradius 36.2216
rwrist -0.353385
rhand -7.75411 -6.67435
rfingers 7.12502
rthumb 18.1454 -35.848
lclavicle 4.99943e-014 -7.15625e-015
lhumerus -25.717 -9.49719 81.2072
lradius 28.3006
lwrist 7.1551
lhand -5.4336 -7.69961
lfingers 7.12502
lthumb 20.3768 21.2513
rfemur -12.5161 -3.93405 22.9907
rtibia 33.3754
rfoot -16.8784 -17.487
rtoes -18.9221
lfemur -10.2872 5.54911 -16.4435
ltibia 27.4568
lfoot -15.8756 4.95645
ltoes -19.3863
9
root 26.3478 16.637 48.1833 176.533 -51.9555 -175.022
lowerback -2.5093 0.151089 5.70538
upperback 4.88226 -0.147668 -1.5186
thorax 6.51083 0.212008 -4.81714
lowerneck -9.27049 2.14366 4.95081
upperneck 7.87275 1.46505 5.62603
head 4.28269 1.08687 1.11066
rclavicle 1.08338e-014 7.15625e-015
rhumerus -32.1309 1.31306 -85.6052
rradius 36.1815
rwrist -0.380535
rhand -8.36995 -6.41374
rfingers 7.12502
rthumb 17.5528 -35.6413
lclavicle 1.08338e-014 7.15625e-015
lhumerus -25.554 -9.28445 81.154
lradius 27.8726
lwrist 6.81707
lhand -5.27837 -8.51674
lfingers 7.12502
lthumb 20.5259 20.4182
rfemur -12.4921 -3.85804 22.9881
rtibia 33.3461
rfoot -16.9344 -17.4871
rtoes -18.6038
lfemur -10.2411 5.54175 -16.4474
ltibia 27.4181
lfoot -15.8789 4.97988
ltoes -19.3813
10
root 26.3446 16.636 48.185 176.552 -51.8259 -175.057
lowerback -2.29755 0.107694 5.85254
upperback 4.74794 -0.188625 -1.63261
thorax 6.24143 0.191531 -5.02115
lowerneck -9.27896 2.18745 4.95305
upperneck 8.04718 1.49813 5.70924
head 4.34756 1.11148 1.14438
rclavicle 1.27222e-014 -2.38542e-014
rhumerus -32.3035 1.42361 -85.798
rradius 36.1507
rwrist -0.291112
rhand -10.0495 -5.27006
rfingers 7.12502
rthumb 15.936 -34.6344
lclavicle 1.27222e-014 -2.38542e-014
lhumerus -25.7611 -9.12387 80.9413
lradius 27.6559
lwrist 6.7278
lhand -5.23075 -8.61528
lfingers 7.12502
lthumb 20.5717 20.3147
rfemur -12.4855 -3.88366 22.9494
rtibia 33.3299
rfoot -16.7233 -17.3953
rtoes -19.1575
lfemur -10.1926 5.61192 -16.469
ltibia 27.3982
lfoot -15.9903 4.93016
ltoes -19.2192
11
root 26.3448 16.6357 48.1851 176.493 -51.8051 -174.983
lowerback -2.48555 0.163622 5.7314
upperback 4.85408 -0.128308 -1.53924
thorax 6.46979 0.221838 -4.85171
lowerneck -9.29605 2.13476 4.98194
upperneck 7.94737 1.44451 5.59824
head 4.3156 1.07914 1.09616
rclavicle 1.28216e-014 3.97569e-015
rhumerus -32.1734 1.27588 -85.6085
rradius 36.1771
rwrist -0.345095
rhand -10.1598 -5.12079
rfingers 7.12502
rthumb 15.8297 -34.4936
lclavicle 1.28216e-014 3.97569e-015
lhumerus -25.5612 -9.17152 81.0474
lradius 27.4307
lwrist 6.73026
lhand -5.27602 -8.52988
lfingers 7.12502
lthumb 20.5282 20.4048
rfemur -12.4847 -3.88654 23.0062
rtibia 33.3277
rfoot -17.0955 -17.2263
rtoes -17.6902
lfemur -10.2015 5.60254 -16.4195
ltibia 27.4048
lfoot -15.9701 4.97759
ltoes -19.1498
12
root 26.343 16.6358 48.1904 176.51 -51.6913 -174.986
lowerback -2.49665 0.204075 5.76385
upperback 4.86131 -0.0767853 -1.54507
thorax 6.49114 0.249895 -4.87238
lowerneck -9.30922 2.1281 4.93555
upperneck 7.91966 1.4371 5.64841
head 4.30753 1.07554 1.12066
rclavicle -4.62174e-014 3.81667e-014
rhumerus -32.1448 1.25733 -85.5829
rradius 36.1294
rwrist -0.313707
rhand -9.94898 -5.18079
rfingers 7.12502
rthumb 16.0328 -34.5374
lclavicle -4.62174e-014 3.81667e-014
lhumerus -25.5202 -9.30817 81.1216
lradius 27.4297
lwrist 6.87401
lhand -5.35559 -7.56528
lfingers 7.12502
lthumb 20.4517 21.3776
rfemur -12.5542 -3.88356 22.9867
rtibia 33.3848
rfoot -17.1003 -17.1547
rtoes -17.7038
lfemur -10.2589 5.65847 -16.4569
ltibia 27.4706
lfoot -16.0092 5.0492
ltoes -19.3425
13
root 26.3403 16.6358 48.1926 176.529 -51.5935 -175.01
lowerback -2.37763 0.172085 5.82909
upperback 4.76901 -0.108477 -1.5973
thorax 6.32041 0.232178 -4.96526
lowerneck -9.22447 2.17182 4.92211
upperneck 7.95949 1.49379 5.69947
head 4.30418 1.10461 1.14358
rclavicle 4.87022e-015 -5.725e-014
rhumerus -32.2889 1.32997 -85.6664
rradius 36.1463
rwrist -0.35184
rhand -8.73644 -6.01779
rfingers 7.12502
rthumb 17.2001 -35.2765
lclavicle 4.87022e-015 -5.725e-014
lhumerus -25.6891 -9.10229 80.9658
lradius 26.8254
lwrist 7.25559
lhand -5.49806 -9.95226
lfingers 7.12502
lthumb 20.3148 19.0053
rfemur -12.5645 -3.88011 22.9566
rtibia 33.3827
rfoot -16.9467 -17.1512
rtoes -18.2967
lfemur -10.2387 5.65728 -16.4838
ltibia 27.4798
lfoot -16.0039 5.20616
ltoes -19.0174
14
root 26.3392 16.6264 48.1954 176.568 -51.5326 -175.043
lowerback -2.57816 0.232816 5.67592
upperback 4.87901 -0.0403837 -1.51038
thorax 6.56053 0.265106 -4.78359
lowerneck -9.25626 2.11288 4.93036
upperneck 7.86254 1.43738 5.56158
head 4.27613 1.0699 1.0901
rclavicle -2.41523e-014 -1.51076e-014
rhumerus -32.1181 1.29682 -85.4816
rradius 36.0862
rwrist -0.438799
rhand -8.69551 -6.11187
rfingers 7.12502
rthumb 17.2395 -35.3672
lclavicle -2.41523e-014 -1.51076e-014
lhumerus -25.1953 -7.68478 80.4472
lradius 25.6659
lwrist 4.61555
lhand -4.34995 -12.5257
lfingers 7.12502
lthumb 21.4179 16.3105
rfemur -12.6412 -4.78262 22.8578
rtibia 33.4045
rfoot -16.9549 -16.1464
rtoes -17.331
lfemur -10.277 5.69827 -16.5222
ltibia 27.5168
lfoot -16.024 5.24995
ltoes -19.1634
15
root 26.3378 16.6358 48.1933 176.502 -51.5484 -174.99
lowerback -2.5859 0.213921 5.67442
upperback 4.89723 -0.0675626 -1.50478
thorax 6.58103 0.2522 -4.77929
lowerneck -9.2618 2.11587 4.94984
upperneck 7.8401 1.44259 5.53862
head 4.26937 1.07148 1.07884
rclavicle 2.98177e-015 4.77083e-015
rhumerus -32.1121 1.26292 -85.4826
rradius 36.0577
rwrist -0.421329
rhand -8.81673 -6.00347
rfingers 7.12502
rthumb 17.1228 -35.269
lclavicle 2.98177e-015 4.77083e-015
lhumerus -25.4311 -8.93985 81.0116
lradius 26.3642
lwrist 7.03444
lhand -5.52463 -9.8431
lfingers 7.12502
lthumb 20.2893 19.1172
rfemur -12.5644 -3.89259 22.9659
rtibia 33.4321
rfoot -17.0346 -17.0849
rtoes -18.0727
lfemur -10.2555 5.70712 -16.4657
ltibia 27.5795
lfoot -16.0567 5.1942
ltoes -19.1989
